<svg xmlns="http://www.w3.org/2000/svg" width="15.195" height="15.259" viewBox="0 0 15.195 15.259">
  <path id="Icon_material-screen-rotation" data-name="Icon material-screen-rotation" d="M10.521,1.6a6.677,6.677,0,0,1,3.8,5.392h.954A7.626,7.626,0,0,0,7.673,0l-.42.019L9.676,2.441l.846-.839Zm-3.974-.49a.948.948,0,0,0-1.348,0L1.156,5.156a.948.948,0,0,0,0,1.348L8.8,14.146a.948.948,0,0,0,1.348,0L14.19,10.1a.948.948,0,0,0,0-1.348L6.547,1.113Zm2.925,12.36L1.83,5.83,5.873,1.787l7.642,7.642Zm-4.648.184a6.668,6.668,0,0,1-3.8-5.392H.075a7.626,7.626,0,0,0,7.6,6.994l.42-.019L5.67,12.818Z" transform="translate(-0.075)" fill="#fff"/>
</svg>
