<svg xmlns="http://www.w3.org/2000/svg" width="22.777" height="26.271" viewBox="0 0 22.777 26.271">
  <g id="组_214" data-name="组 214" transform="translate(0.555 0.51)">
    <path id="路径_112" data-name="路径 112" d="M2703.059,13178.893a2.9,2.9,0,0,0,1.4,4.193,4.825,4.825,0,0,0,1.355,2.584s.638,3.182-1.142,3.926c-2.506,1.048-5.77.715-6.4,6.1" transform="translate(-2698.267 -13170.487)" fill="none" stroke="gray" stroke-linecap="round" stroke-linejoin="round" stroke-width="1"/>
    <path id="路径_113" data-name="路径 113" d="M2714.708,13178.736a6.2,6.2,0,0,1,4.271.269s-.073,2.877-2.292,2.828A2.089,2.089,0,0,1,2714.708,13178.736Z" transform="translate(-2708.303 -13170.236)" fill="none" stroke="gray" stroke-linecap="round" stroke-linejoin="round" stroke-width="1"/>
    <path id="路径_114" data-name="路径 114" d="M2717.624,13171.959c-1.38.136-3.007.214-4.749.214-4.981,0-9.02-.64-9.02-1.427,0-.343.767-.659,2.044-.9" transform="translate(-2701.73 -13164.843)" fill="none" stroke="gray" stroke-linecap="round" stroke-linejoin="round" stroke-width="1"/>
    <path id="路径_115" data-name="路径 115" d="M2743.56,13169.445c1.808.261,2.942.636,2.942,1.053,0,.393-1,.75-2.619,1.007" transform="translate(-2726.338 -13164.596)" fill="none" stroke="gray" stroke-linecap="round" stroke-linejoin="round" stroke-width="1"/>
    <path id="路径_116" data-name="路径 116" d="M2713.312,13158.47c.287-.891.745-1.6,1.474-1.705a18.589,18.589,0,0,1,3.475-.2" transform="translate(-2707.591 -13156.555)" fill="none" stroke="gray" stroke-linecap="round" stroke-linejoin="round" stroke-width="1"/>
    <path id="路径_117" data-name="路径 117" d="M2712.309,13165.882a4.64,4.64,0,0,1,.078-.544" transform="translate(-2706.97 -13162.033)" fill="none" stroke="gray" stroke-linecap="round" stroke-linejoin="round" stroke-width="1"/>
    <path id="路径_118" data-name="路径 118" d="M2754.956,13221.57q.064.354.111.745" transform="translate(-2733.401 -13197.109)" fill="none" stroke="gray" stroke-linecap="round" stroke-linejoin="round" stroke-width="1"/>
    <path id="路径_119" data-name="路径 119" d="M2753,13215.656a5.967,5.967,0,0,1,.413.936" transform="translate(-2732.187 -13193.421)" fill="none" stroke="gray" stroke-linecap="round" stroke-linejoin="round" stroke-width="1"/>
    <path id="路径_120" data-name="路径 120" d="M2737.974,13178.893a2.9,2.9,0,0,1-1.4,4.193,4.821,4.821,0,0,1-1.356,2.584s-.638,3.182,1.142,3.926c1.556.65,3.4.769,4.734,2.053" transform="translate(-2721.1 -13170.487)" fill="none" stroke="gray" stroke-linecap="round" stroke-linejoin="round" stroke-width="1"/>
    <path id="路径_121" data-name="路径 121" d="M2732.714,13180.779a2.208,2.208,0,0,0,.006-2.043,6.2,6.2,0,0,0-4.272.269s.074,2.877,2.292,2.828a2.632,2.632,0,0,0,1.189-.281" transform="translate(-2716.972 -13170.236)" fill="none" stroke="gray" stroke-linecap="round" stroke-linejoin="round" stroke-width="1"/>
    <path id="路径_122" data-name="路径 122" d="M2731.534,13162.458s.153-5.4-1.949-5.693a18.592,18.592,0,0,0-3.476-.2" transform="translate(-2715.523 -13156.555)" fill="none" stroke="gray" stroke-linecap="round" stroke-linejoin="round" stroke-width="1"/>
    <path id="路径_123" data-name="路径 123" d="M2717.751,13204.409s-.1,3.1,3.58,3.443" transform="translate(-2710.343 -13186.404)" fill="none" stroke="gray" stroke-linecap="round" stroke-linejoin="round" stroke-width="1"/>
    <path id="路径_124" data-name="路径 124" d="M2732.139,13209.727a2.372,2.372,0,0,1-1.312,1.043" transform="translate(-2718.447 -13189.723)" fill="none" stroke="gray" stroke-linecap="round" stroke-linejoin="round" stroke-width="1"/>
    <path id="路径_125" data-name="路径 125" d="M2717.634,13196.474s1.01,1.188,3.553,1.064" transform="translate(-2710.27 -13181.454)" fill="none" stroke="gray" stroke-linecap="round" stroke-linejoin="round" stroke-width="1"/>
    <path id="路径_126" data-name="路径 126" d="M2726.2,13180.959s.244-.292.906,0" transform="translate(-2715.582 -13171.695)" fill="none" stroke="gray" stroke-linecap="round" stroke-linejoin="round" stroke-width="1"/>
  </g>
</svg>
