<svg xmlns="http://www.w3.org/2000/svg" width="37.662" height="37.897" viewBox="0 0 37.662 37.897">
  <g id="组_232" data-name="组 232" transform="translate(-666.742 -4860.563)">
    <path id="路径_103" data-name="路径 103" d="M2577.539,13168.912l-.52.547" transform="translate(-1878.876 -8300.335)" fill="none" stroke="#676767" stroke-linecap="round" stroke-linejoin="round" stroke-width="1.5"/>
    <path id="路径_106" data-name="路径 106" d="M2579.982,13160.143l-.6.588a.67.67,0,0,1-.947-.008l-1.956-1.986a.669.669,0,0,1,.006-.947l2.575-2.541a.671.671,0,0,1,.947,0l1.973,1.977a.669.669,0,0,1,0,.951l-.528.518" transform="translate(-1878.524 -8293.658)" fill="none" stroke="#676767" stroke-linecap="round" stroke-linejoin="round" stroke-width="1.5"/>
    <path id="路径_104" data-name="路径 104" d="M2565.041,13169.856l-5.8,6.086a.671.671,0,0,1-.959.011l-1.635-1.627a.671.671,0,0,1,.01-.961l8.538-8.135" transform="translate(-1868.967 -8298.561)" fill="none" stroke="#676767" stroke-linecap="round" stroke-linejoin="round" stroke-width="1.5"/>
    <path id="路径_105" data-name="路径 105" d="M2548.272,13192.115a3.5,3.5,0,0,1-1.719.445,3.463,3.463,0,1,1,3.431-3.453,3.563,3.563,0,0,1-.386,1.627" transform="translate(-1862.525 -8308.393)" fill="none" stroke="#676767" stroke-linecap="round" stroke-linejoin="round" stroke-width="1.5"/>
    <path id="路径_107" data-name="路径 107" d="M2529.414,13181.711c-.845,2.118-1.7,3.114-4.762,2.908-5.394-.362-10.814,6.58-2.148,15.125" transform="translate(-1850.417 -8306.502)" fill="none" stroke="#676767" stroke-linecap="round" stroke-linejoin="round" stroke-width="1.5"/>
    <path id="路径_108" data-name="路径 108" d="M2542.006,13175.943a5.6,5.6,0,0,0-.521,1.015" transform="translate(-1861.755 -8303.723)" fill="none" stroke="#676767" stroke-linecap="round" stroke-linejoin="round" stroke-width="1.5"/>
    <path id="路径_109" data-name="路径 109" d="M2552.222,13172.046a6.3,6.3,0,0,0-5.861-.171" transform="translate(-1864.105 -8301.454)" fill="none" stroke="#676767" stroke-linecap="round" stroke-linejoin="round" stroke-width="1.5"/>
    <path id="路径_110" data-name="路径 110" d="M2549.841,13188.982a5.628,5.628,0,0,1-3.481,6.552c-3.366,1.23-5,1.6-4.74,5.44.363,5.395-6.58,10.814-15.125,2.148" transform="translate(-1854.532 -8310.006)" fill="none" stroke="#676767" stroke-linecap="round" stroke-linejoin="round" stroke-width="1.5"/>
    <path id="路径_111" data-name="路径 111" d="M2569.114,13183.811a4.968,4.968,0,0,1,.438.581" transform="translate(-1875.068 -8307.514)" fill="none" stroke="#676767" stroke-linecap="round" stroke-linejoin="round" stroke-width="1.5"/>
    <line id="直线_31" data-name="直线 31" x2="0.605" y2="0.605" transform="translate(680.349 4887.885)" fill="none" stroke="#676767" stroke-linecap="round" stroke-linejoin="round" stroke-width="1.5"/>
    <line id="直线_32" data-name="直线 32" x2="2.157" y2="2.157" transform="translate(676.839 4884.376)" fill="none" stroke="#676767" stroke-linecap="round" stroke-linejoin="round" stroke-width="1.5"/>
  </g>
</svg>
