<svg xmlns="http://www.w3.org/2000/svg" width="40.364" height="24.171" viewBox="0 0 40.364 24.171">
  <g id="组_231" data-name="组 231" transform="translate(-575.275 -4867.447)">
    <path id="路径_94" data-name="路径 94" d="M2358.643,13173.008a4.262,4.262,0,0,0,.045-.62,4.206,4.206,0,1,0-.651,2.25" transform="translate(-1769.625 -8299.982)" fill="none" stroke="#676767" stroke-linecap="round" stroke-linejoin="round" stroke-width="1.5"/>
    <path id="路径_95" data-name="路径 95" d="M2350.468,13200.019a1.086,1.086,0,0,0,.712.265h7.186a1.092,1.092,0,0,0,1.092-1.092v-8.98c0-.176,1.76-1.641,2.562-2.452" transform="translate(-1769.719 -8309.416)" fill="none" stroke="#676767" stroke-linecap="round" stroke-linejoin="round" stroke-width="1.5"/>
    <path id="路径_96" data-name="路径 96" d="M2341.351,13201.829v.976a1.736,1.736,0,1,0,3.472,0v-4.437a2.59,2.59,0,0,1,.873-1.772" transform="translate(-1765.326 -8313.674)" fill="none" stroke="#676767" stroke-linecap="round" stroke-linejoin="round" stroke-width="1.5"/>
    <path id="路径_97" data-name="路径 97" d="M2358.875,13177.861a10.171,10.171,0,0,0,1.907-5.815,1.736,1.736,0,0,0-3.472.043,7.24,7.24,0,0,1-2.153,4.833,6.59,6.59,0,0,1-4.741,2.041c-6.651,0-9.065,4.037-9.065,6.75v.873" transform="translate(-1765.326 -8301.02)" fill="none" stroke="#676767" stroke-linecap="round" stroke-linejoin="round" stroke-width="1.5"/>
    <path id="路径_98" data-name="路径 98" d="M2399.4,13173.674a4.208,4.208,0,1,1-.012-2.609" transform="translate(-1789.339 -8299.982)" fill="none" stroke="#676767" stroke-linecap="round" stroke-linejoin="round" stroke-width="1.5"/>
    <path id="路径_99" data-name="路径 99" d="M2398.59,13203.635h-7.614a1.091,1.091,0,0,1-1.091-1.092v-7.827" transform="translate(-1788.71 -8312.768)" fill="none" stroke="#676767" stroke-linecap="round" stroke-linejoin="round" stroke-width="1.5"/>
    <path id="路径_100" data-name="路径 100" d="M2410.75,13192.5a6.06,6.06,0,0,1,1.561,3.9v4.437a1.736,1.736,0,1,1-3.472,0v-4.437a2.589,2.589,0,0,0-.873-1.773" transform="translate(-1797.423 -8311.697)" fill="none" stroke="#676767" stroke-linecap="round" stroke-linejoin="round" stroke-width="1.5"/>
    <path id="路径_101" data-name="路径 101" d="M2379.676,13170.924a1.738,1.738,0,0,1,3.045,1.165,7.241,7.241,0,0,0,2.153,4.833,6.592,6.592,0,0,0,4.741,2.041,10.727,10.727,0,0,1,6.075,1.6" transform="translate(-1783.792 -8301.02)" fill="none" stroke="#676767" stroke-linecap="round" stroke-linejoin="round" stroke-width="1.5"/>
    <path id="路径_102" data-name="路径 102" d="M2384.2,13183.316a10.511,10.511,0,0,1-2.177-1.687,10.783,10.783,0,0,1-3.131-6.594" transform="translate(-1783.416 -8303.285)" fill="none" stroke="#676767" stroke-linecap="round" stroke-linejoin="round" stroke-width="1.5"/>
  </g>
</svg>
