<svg xmlns="http://www.w3.org/2000/svg" width="24.372" height="35.181" viewBox="0 0 24.372 35.181">
  <path id="路径_132" data-name="路径 132" d="M2205.7,13174.693v-12.181a4.958,4.958,0,0,0-4.958-4.959h-12.956a4.959,4.959,0,0,0-4.958,4.959v23.765a4.958,4.958,0,0,0,4.958,4.957h12.956a4.957,4.957,0,0,0,4.958-4.957v-1.855m0-2.166v-1.623m-15.816,4.994a5.028,5.028,0,1,1,1.565,1.7m-4.087-16.73a7.419,7.419,0,1,1,1.015,1.8m9.158-2.066a4.079,4.079,0,1,1,.807-2.436,4.175,4.175,0,0,1-.034.529" transform="translate(-2182.077 -13156.804)" fill="none" stroke="#676767" stroke-linecap="round" stroke-miterlimit="10" stroke-width="1.5"/>
</svg>
