<svg xmlns="http://www.w3.org/2000/svg" width="21.996" height="21.991" viewBox="0 0 21.996 21.991">
  <path id="Icon_awesome-instagram" data-name="Icon awesome-instagram" d="M11,7.6a5.638,5.638,0,1,0,5.638,5.638A5.629,5.629,0,0,0,11,7.6Zm0,9.3a3.666,3.666,0,1,1,3.666-3.666A3.672,3.672,0,0,1,11,16.9Zm7.184-9.534a1.315,1.315,0,1,1-1.315-1.315A1.312,1.312,0,0,1,18.179,7.364ZM21.913,8.7a6.508,6.508,0,0,0-1.776-4.608,6.551,6.551,0,0,0-4.608-1.776c-1.816-.1-7.258-.1-9.073,0A6.541,6.541,0,0,0,1.848,4.086,6.529,6.529,0,0,0,.072,8.694c-.1,1.816-.1,7.258,0,9.073a6.508,6.508,0,0,0,1.776,4.608,6.559,6.559,0,0,0,4.608,1.776c1.816.1,7.258.1,9.073,0a6.508,6.508,0,0,0,4.608-1.776,6.551,6.551,0,0,0,1.776-4.608c.1-1.816.1-7.253,0-9.068ZM19.568,19.716a3.711,3.711,0,0,1-2.09,2.09c-1.448.574-4.883.442-6.482.442s-5.04.128-6.482-.442a3.711,3.711,0,0,1-2.09-2.09c-.574-1.448-.442-4.883-.442-6.482s-.128-5.04.442-6.482a3.711,3.711,0,0,1,2.09-2.09C5.961,4.086,9.4,4.219,11,4.219s5.04-.128,6.482.442a3.711,3.711,0,0,1,2.09,2.09c.574,1.448.442,4.883.442,6.482S20.142,18.273,19.568,19.716Z" transform="translate(0.005 -2.238)" fill="gray"/>
</svg>
