<svg xmlns="http://www.w3.org/2000/svg" width="31.191" height="36.313" viewBox="0 0 31.191 36.313">
  <g id="组_232" data-name="组 232" transform="translate(-760.138 -4861.412)">
    <path id="路径_112" data-name="路径 112" d="M2704.8,13178.895a4.015,4.015,0,0,0,1.907,5.773,6.67,6.67,0,0,0,1.847,3.561s.87,4.381-1.556,5.406c-3.415,1.445-7.863.984-8.729,8.4" transform="translate(-1937.297 -8305.145)" fill="none" stroke="#676767" stroke-linecap="round" stroke-linejoin="round" stroke-width="1.5"/>
    <path id="路径_113" data-name="路径 113" d="M2714.8,13178.832a8.352,8.352,0,0,1,5.82.369s-.1,3.963-3.123,3.9A2.876,2.876,0,0,1,2714.8,13178.832Z" transform="translate(-1945.1 -8304.949)" fill="none" stroke="#676767" stroke-linecap="round" stroke-linejoin="round" stroke-width="1.5"/>
    <path id="路径_114" data-name="路径 114" d="M2722.62,13172.759c-1.88.187-4.1.294-6.472.294-6.789,0-12.292-.88-12.292-1.965,0-.473,1.044-.906,2.785-1.245" transform="translate(-1939.99 -8300.783)" fill="none" stroke="#676767" stroke-linecap="round" stroke-linejoin="round" stroke-width="1.5"/>
    <path id="路径_115" data-name="路径 115" d="M2743.561,13169.445c2.463.359,4.009.876,4.009,1.451,0,.54-1.364,1.03-3.57,1.385" transform="translate(-1959.121 -8300.592)" fill="none" stroke="#676767" stroke-linecap="round" stroke-linejoin="round" stroke-width="1.5"/>
    <path id="路径_116" data-name="路径 116" d="M2713.313,13159.192c.391-1.228,1.015-2.211,2.008-2.349a25.148,25.148,0,0,1,4.736-.27" transform="translate(-1944.546 -8294.381)" fill="none" stroke="#676767" stroke-linecap="round" stroke-linejoin="round" stroke-width="1.5"/>
    <path id="路径_117" data-name="路径 117" d="M2712.309,13166.088a6.571,6.571,0,0,1,.106-.75" transform="translate(-1944.063 -8298.613)" fill="none" stroke="#676767" stroke-linecap="round" stroke-linejoin="round" stroke-width="1.5"/>
    <path id="路径_118" data-name="路径 118" d="M2754.956,13221.572q.088.486.151,1.026" transform="translate(-1964.611 -8325.707)" fill="none" stroke="#676767" stroke-linecap="round" stroke-linejoin="round" stroke-width="1.5"/>
    <path id="路径_119" data-name="路径 119" d="M2753,13215.657a8.225,8.225,0,0,1,.562,1.287" transform="translate(-1963.667 -8322.857)" fill="none" stroke="#676767" stroke-linecap="round" stroke-linejoin="round" stroke-width="1.5"/>
    <path id="路径_120" data-name="路径 120" d="M2739.013,13178.895a4.015,4.015,0,0,1-1.907,5.773,6.67,6.67,0,0,1-1.847,3.561s-.87,4.381,1.556,5.406c2.12.9,4.639,1.06,6.451,2.83" transform="translate(-1955.048 -8305.145)" fill="none" stroke="#676767" stroke-linecap="round" stroke-linejoin="round" stroke-width="1.5"/>
    <path id="路径_121" data-name="路径 121" d="M2734.262,13181.645a3.068,3.068,0,0,0,.008-2.812,8.355,8.355,0,0,0-5.821.369s.1,3.963,3.124,3.9a3.561,3.561,0,0,0,1.62-.387" transform="translate(-1951.839 -8304.949)" fill="none" stroke="#676767" stroke-linecap="round" stroke-linejoin="round" stroke-width="1.5"/>
    <path id="路径_122" data-name="路径 122" d="M2733.5,13164.686s.208-7.443-2.656-7.842a25.149,25.149,0,0,0-4.736-.27" transform="translate(-1950.712 -8294.381)" fill="none" stroke="#676767" stroke-linecap="round" stroke-linejoin="round" stroke-width="1.5"/>
    <path id="路径_123" data-name="路径 123" d="M2717.751,13204.411s-.137,4.272,4.878,4.743" transform="translate(-1946.685 -8317.439)" fill="none" stroke="#676767" stroke-linecap="round" stroke-linejoin="round" stroke-width="1.5"/>
    <path id="路径_124" data-name="路径 124" d="M2732.615,13209.729a3.246,3.246,0,0,1-1.787,1.437" transform="translate(-1952.985 -8320.002)" fill="none" stroke="#676767" stroke-linecap="round" stroke-linejoin="round" stroke-width="1.5"/>
    <path id="路径_125" data-name="路径 125" d="M2717.634,13196.475s1.376,1.635,4.843,1.467" transform="translate(-1946.628 -8313.615)" fill="none" stroke="#676767" stroke-linecap="round" stroke-linejoin="round" stroke-width="1.5"/>
    <path id="路径_126" data-name="路径 126" d="M2726.205,13181.009s.333-.4,1.236,0" transform="translate(-1950.758 -8306.078)" fill="none" stroke="#676767" stroke-linecap="round" stroke-linejoin="round" stroke-width="1.5"/>
  </g>
</svg>
