<svg id="组_197" data-name="组 197" xmlns="http://www.w3.org/2000/svg" width="47.651" height="47.651" viewBox="0 0 47.651 47.651">
  <circle id="椭圆_19" data-name="椭圆 19" cx="23.825" cy="23.825" r="23.825" transform="translate(0)"/>
  <g id="组_40" data-name="组 40" transform="translate(6.486 13.685)">
    <g id="组_38" data-name="组 38">
      <path id="路径_31" data-name="路径 31" d="M2032.521,10316.455a3.762,3.762,0,1,0-.542,1.46" transform="translate(-2020.897 -10312.138)" fill="none" stroke="#fff" stroke-linecap="round" stroke-linejoin="round" stroke-width="2"/>
      <path id="路径_32" data-name="路径 32" d="M2025.295,10349.39a.977.977,0,0,0,.637.236h6.428a.977.977,0,0,0,.977-.978v-8.033c0-.157,1.575-1.467,2.292-2.193" transform="translate(-2021.068 -10329.347)" fill="none" stroke="#fff" stroke-linecap="round" stroke-linejoin="round" stroke-width="2"/>
      <path id="路径_33" data-name="路径 33" d="M2013.055,10354.966v.873a1.553,1.553,0,0,0,3.106,0v-3.969a2.315,2.315,0,0,1,.781-1.586" transform="translate(-2013.055 -10337.112)" fill="none" stroke="#fff" stroke-linecap="round" stroke-linejoin="round" stroke-width="2"/>
      <path id="路径_34" data-name="路径 34" d="M2028.732,10321.762a9.09,9.09,0,0,0,1.706-5.2,1.553,1.553,0,0,0-3.106.038,6.48,6.48,0,0,1-1.925,4.323,5.9,5.9,0,0,1-4.242,1.827c-5.95,0-8.11,3.611-8.11,6.039v.779" transform="translate(-2013.055 -10314.029)" fill="none" stroke="#fff" stroke-linecap="round" stroke-linejoin="round" stroke-width="2"/>
    </g>
    <g id="组_39" data-name="组 39" transform="translate(17.317)">
      <path id="路径_35" data-name="路径 35" d="M2087.311,10317.052a3.764,3.764,0,1,1-.011-2.333" transform="translate(-2074.263 -10312.138)" fill="none" stroke="#fff" stroke-linecap="round" stroke-linejoin="round" stroke-width="2"/>
      <path id="路径_36" data-name="路径 36" d="M2086,10355.74h-6.811a.977.977,0,0,1-.977-.977v-7" transform="translate(-2073.118 -10335.461)" fill="none" stroke="#fff" stroke-linecap="round" stroke-linejoin="round" stroke-width="2"/>
      <path id="路径_37" data-name="路径 37" d="M2104.977,10344.781a5.421,5.421,0,0,1,1.4,3.486v3.969a1.553,1.553,0,0,1-3.106,0v-3.969a2.316,2.316,0,0,0-.781-1.587" transform="translate(-2089.011 -10333.51)" fill="none" stroke="#fff" stroke-linecap="round" stroke-linejoin="round" stroke-width="2"/>
      <path id="路径_38" data-name="路径 38" d="M2064.506,10315.557a1.554,1.554,0,0,1,2.724,1.041,6.48,6.48,0,0,0,1.926,4.323,5.9,5.9,0,0,0,4.241,1.827,9.6,9.6,0,0,1,5.435,1.432" transform="translate(-2064.145 -10314.029)" fill="none" stroke="#fff" stroke-linecap="round" stroke-linejoin="round" stroke-width="2"/>
      <path id="路径_39" data-name="路径 39" d="M2068.209,10328.749a9.358,9.358,0,0,1-1.948-1.511,9.641,9.641,0,0,1-2.8-5.9" transform="translate(-2063.46 -10318.162)" fill="none" stroke="#fff" stroke-linecap="round" stroke-linejoin="round" stroke-width="2"/>
    </g>
  </g>
</svg>
