<svg xmlns="http://www.w3.org/2000/svg" width="17.783" height="25.456" viewBox="0 0 17.783 25.456">
  <g id="组_216" data-name="组 216" transform="translate(0.5 0.5)">
    <path id="路径_132" data-name="路径 132" d="M2199.61,13170v-8.843a3.621,3.621,0,0,0-3.639-3.6h-9.506a3.621,3.621,0,0,0-3.638,3.6v17.254a3.62,3.62,0,0,0,3.638,3.6h9.506a3.62,3.62,0,0,0,3.639-3.6v-1.348m0-1.571v-1.18m-11.605,3.628a3.615,3.615,0,0,1-.477-1.8,3.674,3.674,0,1,1,1.625,3.028m-3-12.147a5.322,5.322,0,0,1-.374-1.966,5.4,5.4,0,1,1,1.118,3.271m6.72-1.5a2.956,2.956,0,1,1,.592-1.771,2.942,2.942,0,0,1-.025.386" transform="translate(-2182.827 -13157.551)" fill="none" stroke="gray" stroke-linecap="round" stroke-miterlimit="10" stroke-width="1"/>
  </g>
</svg>
