<svg xmlns="http://www.w3.org/2000/svg" width="26.45" height="38.449" viewBox="0 0 26.45 38.449">
  <g id="组_230" data-name="组 230" transform="translate(-43.05 -1113.775)">
    <path id="Icon_awesome-music" data-name="Icon awesome-music" d="M26.449,1.653A1.652,1.652,0,0,0,24.3.077L7.77,4.959A1.653,1.653,0,0,0,6.612,6.535v13.5a7.146,7.146,0,0,0-1.653-.2C2.22,19.837,0,21.317,0,23.143s2.22,3.306,4.959,3.306,4.959-1.48,4.959-3.306V11.071L23.143,7.2v9.538a7.146,7.146,0,0,0-1.653-.2c-2.739,0-4.959,1.48-4.959,3.306s2.22,3.306,4.959,3.306,4.959-1.48,4.959-3.306V1.653Z" transform="translate(43.05 1113.776)" fill="#e8e8e8"/>
    <text id="VIVA" transform="translate(45.051 1149.225)" fill="#e8e8e8" font-size="10" font-family="Roboto-Bold, Roboto" font-weight="700"><tspan x="0" y="0">VIVA</tspan></text>
  </g>
</svg>
