<svg xmlns="http://www.w3.org/2000/svg" width="62.388" height="90.101" viewBox="0 0 62.388 90.101">
  <g id="组_29" data-name="组 29" transform="translate(1.875 1.875)">
    <path id="路径_15" data-name="路径 15" d="M2763.427,11731.01v-31.229a12.712,12.712,0,0,0-12.712-12.712H2717.5a12.712,12.712,0,0,0-12.712,12.712v60.926a12.714,12.714,0,0,0,12.712,12.713h33.215a12.714,12.714,0,0,0,12.712-12.713v-4.757m0-5.551v-4.163m-40.548,12.8a12.9,12.9,0,1,1,4.013,4.346m-10.479-42.894a19.021,19.021,0,1,1,2.6,4.607m23.48-5.3a10.457,10.457,0,1,1,2.067-6.242,10.576,10.576,0,0,1-.087,1.357" transform="translate(-2704.788 -11687.069)" fill="none" stroke="#fff" stroke-linecap="round" stroke-miterlimit="10" stroke-width="3.75"/>
  </g>
</svg>
