<svg id="组_10" data-name="组 10" xmlns="http://www.w3.org/2000/svg" width="47.651" height="47.651" viewBox="0 0 47.651 47.651">
  <circle id="椭圆_7" data-name="椭圆 7" cx="23.825" cy="23.825" r="23.825" transform="translate(0 0)"/>
  <g id="组_9" data-name="组 9" transform="translate(12.306 7.759)">
    <path id="路径_14" data-name="路径 14" d="M2052.884,10043.647v-12.125a4.937,4.937,0,0,0-4.936-4.937h-12.9a4.937,4.937,0,0,0-4.936,4.937v23.657a4.936,4.936,0,0,0,4.936,4.936h12.9a4.936,4.936,0,0,0,4.936-4.936v-1.848m0-2.155v-1.616m-15.745,4.973a5,5,0,1,1,1.559,1.688m-4.069-16.656a7.388,7.388,0,1,1,1.01,1.789m9.117-2.058a4.049,4.049,0,1,1,.769-1.9" transform="translate(-2030.115 -10026.586)" fill="none" stroke="#fff" stroke-linecap="round" stroke-miterlimit="10" stroke-width="2"/>
  </g>
</svg>
