<svg xmlns="http://www.w3.org/2000/svg" width="27.534" height="27.427" viewBox="0 0 27.534 27.427">
  <g id="组_213" data-name="组 213" transform="translate(0.531 0.558)">
    <g id="组_62" data-name="组 62" transform="translate(9.555)">
      <path id="路径_103" data-name="路径 103" d="M2577.4,13168.911l-.382.4" transform="translate(-2564.115 -13163.697)" fill="none" stroke="gray" stroke-linecap="round" stroke-linejoin="round" stroke-width="1"/>
      <path id="路径_104" data-name="路径 104" d="M2562.754,13168.588l-4.255,4.418a.5.5,0,0,1-.7.009l-1.2-1.183a.482.482,0,0,1,.008-.7l6.265-5.906" transform="translate(-2551.368 -13161.401)" fill="none" stroke="gray" stroke-linecap="round" stroke-linejoin="round" stroke-width="1"/>
      <path id="路径_105" data-name="路径 105" d="M2546.891,13190.338a2.568,2.568,0,0,1-1.261.326,2.515,2.515,0,1,1,2.518-2.51,2.557,2.557,0,0,1-.284,1.18" transform="translate(-2543.082 -13174.129)" fill="none" stroke="gray" stroke-linecap="round" stroke-linejoin="round" stroke-width="1"/>
      <path id="路径_106" data-name="路径 106" d="M2579,13158.746l-.438.427a.5.5,0,0,1-.695,0l-1.436-1.441a.481.481,0,0,1,0-.687l1.89-1.846a.494.494,0,0,1,.694,0l1.448,1.435a.483.483,0,0,1,0,.691l-.387.377" transform="translate(-2563.661 -13155.052)" fill="none" stroke="gray" stroke-linecap="round" stroke-linejoin="round" stroke-width="1"/>
    </g>
    <path id="路径_107" data-name="路径 107" d="M2526.363,13181.71c-.62,1.537-1.248,2.261-3.494,2.111-3.958-.264-7.936,4.776-1.576,10.98" transform="translate(-2517.952 -13171.682)" fill="none" stroke="gray" stroke-linecap="round" stroke-linejoin="round" stroke-width="1"/>
    <path id="路径_108" data-name="路径 108" d="M2541.868,13175.94a4.126,4.126,0,0,0-.383.738" transform="translate(-2532.538 -13168.082)" fill="none" stroke="gray" stroke-linecap="round" stroke-linejoin="round" stroke-width="1"/>
    <path id="路径_109" data-name="路径 109" d="M2550.662,13171.822a4.673,4.673,0,0,0-4.3-.125" transform="translate(-2535.559 -13165.146)" fill="none" stroke="gray" stroke-linecap="round" stroke-linejoin="round" stroke-width="1"/>
    <path id="路径_110" data-name="路径 110" d="M2543.625,13188.98a4.076,4.076,0,0,1-2.555,4.758c-2.47.895-3.667,1.163-3.479,3.95.267,3.918-4.828,7.853-11.1,1.56" transform="translate(-2523.246 -13176.216)" fill="none" stroke="gray" stroke-linecap="round" stroke-linejoin="round" stroke-width="1"/>
    <path id="路径_111" data-name="路径 111" d="M2569.114,13183.81a3.574,3.574,0,0,1,.322.421" transform="translate(-2549.66 -13172.991)" fill="none" stroke="gray" stroke-linecap="round" stroke-linejoin="round" stroke-width="1"/>
    <line id="直线_31" data-name="直线 31" x2="0.444" y2="0.439" transform="translate(9.402 19.231)" fill="none" stroke="gray" stroke-linecap="round" stroke-linejoin="round" stroke-width="1"/>
    <line id="直线_32" data-name="直线 32" x2="1.583" y2="1.566" transform="translate(6.827 16.684)" fill="none" stroke="gray" stroke-linecap="round" stroke-linejoin="round" stroke-width="1"/>
  </g>
</svg>
