<svg xmlns="http://www.w3.org/2000/svg" width="43.01" height="43" viewBox="0 0 43.01 43">
  <path id="Icon_awesome-instagram" data-name="Icon awesome-instagram" d="M21.5,12.713A11.025,11.025,0,1,0,32.529,23.738,11.007,11.007,0,0,0,21.5,12.713Zm0,18.192a7.167,7.167,0,1,1,7.167-7.167A7.18,7.18,0,0,1,21.5,30.905ZM35.551,12.262A2.571,2.571,0,1,1,32.98,9.691,2.565,2.565,0,0,1,35.551,12.262Zm7.3,2.61c-.163-3.445-.95-6.5-3.473-9.01s-5.565-3.3-9.01-3.473c-3.55-.2-14.191-.2-17.741,0-3.435.163-6.486.95-9.01,3.464s-3.3,5.565-3.473,9.01c-.2,3.55-.2,14.191,0,17.741.163,3.445.95,6.5,3.473,9.01s5.565,3.3,9.01,3.473c3.55.2,14.191.2,17.741,0,3.445-.163,6.5-.95,9.01-3.473s3.3-5.565,3.473-9.01c.2-3.55.2-14.181,0-17.732ZM38.267,36.413A7.256,7.256,0,0,1,34.179,40.5c-2.831,1.123-9.547.864-12.675.864s-9.854.249-12.675-.864a7.256,7.256,0,0,1-4.087-4.087c-1.123-2.831-.864-9.547-.864-12.675s-.249-9.854.864-12.675A7.256,7.256,0,0,1,8.829,6.975c2.831-1.123,9.547-.864,12.675-.864s9.854-.249,12.675.864a7.256,7.256,0,0,1,4.087,4.087c1.123,2.831.864,9.547.864,12.675S39.389,33.592,38.267,36.413Z" transform="translate(0.005 -2.238)" fill="#fff"/>
</svg>
