<svg xmlns="http://www.w3.org/2000/svg" width="29.518" height="17.46" viewBox="0 0 29.518 17.46">
  <g id="组_212" data-name="组 212" transform="translate(0.5 0.5)">
    <g id="组_59" data-name="组 59">
      <path id="路径_94" data-name="路径 94" d="M2356.415,13171.682a3.069,3.069,0,1,0-.445,1.185" transform="translate(-2346.881 -13168.178)" fill="none" stroke="gray" stroke-linecap="round" stroke-linejoin="round" stroke-width="1"/>
      <path id="路径_95" data-name="路径 95" d="M2350.468,13196.659a.806.806,0,0,0,.523.192h5.273a.8.8,0,0,0,.8-.792v-6.521c0-.127,1.292-1.189,1.881-1.78" transform="translate(-2347.001 -13180.392)" fill="none" stroke="gray" stroke-linecap="round" stroke-linejoin="round" stroke-width="1"/>
      <path id="路径_96" data-name="路径 96" d="M2341.351,13200.394v.708a1.274,1.274,0,0,0,2.547,0v-3.223a1.871,1.871,0,0,1,.641-1.286" transform="translate(-2341.351 -13185.903)" fill="none" stroke="gray" stroke-linecap="round" stroke-linejoin="round" stroke-width="1"/>
      <path id="路径_97" data-name="路径 97" d="M2354.21,13175.8a7.333,7.333,0,0,0,1.4-4.221,1.274,1.274,0,0,0-2.548.029,5.239,5.239,0,0,1-1.58,3.511,4.865,4.865,0,0,1-3.479,1.482c-4.88,0-6.652,2.929-6.652,4.9v.632" transform="translate(-2341.351 -13169.522)" fill="none" stroke="gray" stroke-linecap="round" stroke-linejoin="round" stroke-width="1"/>
    </g>
    <g id="组_60" data-name="组 60" transform="translate(14.276)">
      <path id="路径_98" data-name="路径 98" d="M2397.217,13172.166a3.056,3.056,0,1,1-.009-1.894" transform="translate(-2386.515 -13168.178)" fill="none" stroke="gray" stroke-linecap="round" stroke-linejoin="round" stroke-width="1"/>
      <path id="路径_99" data-name="路径 99" d="M2396.273,13201.19h-5.587a.8.8,0,0,1-.8-.793v-5.683" transform="translate(-2385.707 -13184.731)" fill="none" stroke="gray" stroke-linecap="round" stroke-linejoin="round" stroke-width="1"/>
      <path id="路径_100" data-name="路径 100" d="M2410.009,13192.494a4.379,4.379,0,0,1,1.146,2.831v3.22a1.274,1.274,0,0,1-2.548,0v-3.22a1.867,1.867,0,0,0-.641-1.288" transform="translate(-2396.913 -13183.347)" fill="none" stroke="gray" stroke-linecap="round" stroke-linejoin="round" stroke-width="1"/>
      <path id="路径_101" data-name="路径 101" d="M2379.676,13170.761a1.285,1.285,0,0,1,.976-.429,1.266,1.266,0,0,1,1.259,1.274,5.239,5.239,0,0,0,1.579,3.511,4.868,4.868,0,0,0,3.479,1.482,7.941,7.941,0,0,1,4.458,1.161" transform="translate(-2379.379 -13169.522)" fill="none" stroke="gray" stroke-linecap="round" stroke-linejoin="round" stroke-width="1"/>
      <path id="路径_102" data-name="路径 102" d="M2382.791,13181.047a7.683,7.683,0,0,1-1.6-1.226,7.8,7.8,0,0,1-2.3-4.786" transform="translate(-2378.896 -13172.456)" fill="none" stroke="gray" stroke-linecap="round" stroke-linejoin="round" stroke-width="1"/>
    </g>
  </g>
</svg>
