<svg xmlns="http://www.w3.org/2000/svg" width="27.105" height="21.991" viewBox="0 0 27.105 21.991">
  <path id="Icon_awesome-twitter" data-name="Icon awesome-twitter" d="M24.048,9.007a5.088,5.088,0,0,1,0,.511c0,7.319-5.672,15.854-15.854,15.854A16.359,16.359,0,0,1-.5,22.815a15.277,15.277,0,0,0,1.534,0,11.691,11.691,0,0,0,7.16-2.046,6.378,6.378,0,0,1-5.626-4.091,6.8,6.8,0,0,0,1.023,0,6.563,6.563,0,0,0,1.534,0,5.462,5.462,0,0,1-4.091-5.626h0a5.69,5.69,0,0,0,2.557.511,5.6,5.6,0,0,1-2.557-4.6A4.528,4.528,0,0,1,1.546,4.4a16.326,16.326,0,0,0,11.763,5.626c-.086-.411-.511-.594-.511-1.023a5.687,5.687,0,0,1,5.626-5.626,5.459,5.459,0,0,1,4.091,1.534,10.8,10.8,0,0,0,3.58-1.023,5.775,5.775,0,0,1-2.557,3.069,10.608,10.608,0,0,0,3.069-1.023A11.961,11.961,0,0,1,24.048,9.007Z" transform="translate(0.5 -3.381)" fill="gray"/>
</svg>
