<svg xmlns="http://www.w3.org/2000/svg" width="53" height="43" viewBox="0 0 53 43">
  <path id="Icon_awesome-twitter" data-name="Icon awesome-twitter" d="M47.5,14.381a9.948,9.948,0,0,1,0,1c0,14.311-11.092,31-31,31a31.988,31.988,0,0,1-17-5,29.873,29.873,0,0,0,3,0c5.061,0,10.28-1.084,14-4-4.759-.1-9.626-3.71-11-8a13.285,13.285,0,0,0,2,0,12.834,12.834,0,0,0,3,0c-4.96-1.006-8-5.738-8-11h0a11.127,11.127,0,0,0,5,1,10.949,10.949,0,0,1-5-9,8.853,8.853,0,0,1,1-5c5.329,6.569,14.018,10.531,23,11-.168-.8-1-1.162-1-2a11.121,11.121,0,0,1,11-11,10.674,10.674,0,0,1,8,3c2.447-.469,4.922-.76,7-2a11.291,11.291,0,0,1-5,6,20.742,20.742,0,0,0,6-2C51.026,10.526,49.611,12.839,47.5,14.381Z" transform="translate(0.5 -3.381)" fill="#fff"/>
</svg>
