<svg xmlns="http://www.w3.org/2000/svg" width="171.186" height="51.06" viewBox="0 0 171.186 51.06">
  <g id="组_169" data-name="组 169" transform="translate(-1944.06 -28.206)">
    <g id="组_6" data-name="组 6" transform="translate(1985.559 63.603)">
      <g id="组_5" data-name="组 5" transform="translate(0 4.077)">
        <path id="路径_1" data-name="路径 1" d="M2007.533,85.105h11.431l-.408,2.415h-11.45l-.721,4.109h11.431l-.409,2.415h-16.65l1.888-10.71h5.2Z" transform="translate(-2000.757 -82.457)" fill="#fff"/>
        <path id="路径_2" data-name="路径 2" d="M2031.182,83.333h5.2l-6.64,10.71h-5.2Zm10.3,3.914,1.811,6.8h-5.2l-1.812-6.8Z" transform="translate(-2007.133 -82.457)" fill="#fff"/>
        <path id="路径_3" data-name="路径 3" d="M2067.221,86.974l-3.135,7.069h-5.2l2.064-4.654h-10.788l.428-2.415Zm.233-1.227H2050.8l.428-2.415h16.63Z" transform="translate(-2014.001 -82.457)" fill="#fff"/>
        <path id="路径_4" data-name="路径 4" d="M2091.46,85l-5.082,1.4-1.285,7.322h-5.2l1.033-5.823-6.952,1.908.506-2.843,17.487-4.829Z" transform="translate(-2020.383 -82.136)" fill="#fff"/>
        <path id="路径_5" data-name="路径 5" d="M2116.124,83.333l-4.771,10.71h-5.2l3.68-8.3h-10.788l.428-2.415Z" transform="translate(-2027.104 -82.457)" fill="#fff"/>
      </g>
      <circle id="椭圆_1" data-name="椭圆 1" cx="2.143" cy="2.143" r="2.143" transform="translate(12.685)" fill="#fff"/>
      <circle id="椭圆_2" data-name="椭圆 2" cx="2.143" cy="2.143" r="2.143" transform="translate(17.696)" fill="#fff"/>
      <circle id="椭圆_3" data-name="椭圆 3" cx="2.143" cy="2.143" r="2.143" transform="translate(28.943)" fill="#fff"/>
      <circle id="椭圆_4" data-name="椭圆 4" cx="2.143" cy="2.143" r="2.143" transform="translate(33.955)" fill="#fff"/>
      <circle id="椭圆_5" data-name="椭圆 5" cx="2.143" cy="2.143" r="2.143" transform="translate(81.827)" fill="#fff"/>
      <circle id="椭圆_6" data-name="椭圆 6" cx="2.143" cy="2.143" r="2.143" transform="translate(86.838)" fill="#fff"/>
    </g>
    <g id="组_7" data-name="组 7" transform="translate(1944.06 28.206)">
      <path id="路径_6" data-name="路径 6" d="M1954.771,33.681l4.747,14.074,4.748-14.074h-3.552V28.9h12.43v4.785h-3.4l-8.112,23.533h-5.813l-8.393-23.533h-3.365V28.9h14.355v4.785Z" transform="translate(-1944.06 -28.391)" fill="#fff"/>
      <path id="路径_7" data-name="路径 7" d="M1994.5,52.356v4.523h-12.131V52.356h2.99V41.833h-2.99v-4.6h9.215V52.356Zm-2.523-20.71a3.294,3.294,0,0,1-1.019,2.477,3.372,3.372,0,0,1-2.42.981,3.436,3.436,0,1,1,3.439-3.458Z" transform="translate(-1954.33 -28.206)" fill="#fff"/>
      <path id="路径_8" data-name="路径 8" d="M2008.068,33.681l4.748,14.074,4.748-14.074h-3.551V28.9h12.43v4.785h-3.4l-8.112,23.533h-5.813l-8.392-23.533h-3.365V28.9h14.356v4.785Z" transform="translate(-1958.347 -28.391)" fill="#fff"/>
      <path id="路径_9" data-name="路径 9" d="M2127.182,33.681l4.748,14.074,4.748-14.074h-3.551V28.9h12.43v4.785h-3.4l-8.111,23.533h-5.813l-8.393-23.533h-3.364V28.9h14.355v4.785Z" transform="translate(-1990.277 -28.391)" fill="#fff"/>
      <path id="路径_10" data-name="路径 10" d="M2050.846,48.227v7.009h3.932l-1.8,4.785H2044.6V58.489a9.407,9.407,0,0,1-5.346,1.832,7.687,7.687,0,0,1-5.178-1.664,5.6,5.6,0,0,1-1.944-4.486,5.917,5.917,0,0,1,2.177-4.795,8.784,8.784,0,0,1,5.785-1.8,8.409,8.409,0,0,1,2.235.271,12.522,12.522,0,0,1,2.271.925V47.2a3.162,3.162,0,0,0-.935-2.392,3.906,3.906,0,0,0-2.8-.9,4.96,4.96,0,0,0-3.607,1.57l-5.046-.916q2.3-4.635,9.494-4.635,4.935,0,7.038,2.028T2050.846,48.227Zm-10.186,8.187q1.681,0,3.944-2.019V52.638a6.956,6.956,0,0,0-3.7-1.309,2.988,2.988,0,0,0-2.056.636,2.307,2.307,0,0,0-.709,1.813Q2038.136,56.413,2040.659,56.414Z" transform="translate(-1967.67 -31.348)" fill="#fff"/>
      <path id="路径_11" data-name="路径 11" d="M2076.071,33.681v18.6h8.318V43.588h5.515V57.064h-26.08l1.8-4.785h3.1v-18.6h-4.019V28.9H2080.2v4.785Z" transform="translate(-1976.164 -28.391)" fill="#fff"/>
      <path id="路径_12" data-name="路径 12" d="M2113.381,52.356v4.523H2101.25V52.356h2.99V41.833h-2.99v-4.6h9.215V52.356Zm-2.523-20.71a3.293,3.293,0,0,1-1.019,2.477,3.371,3.371,0,0,1-2.42.981,3.436,3.436,0,1,1,3.439-3.458Z" transform="translate(-1986.196 -28.206)" fill="#fff"/>
      <path id="路径_13" data-name="路径 13" d="M2170.314,51.516H2155.66a5.617,5.617,0,0,0,1.561,3.58,4.7,4.7,0,0,0,3.448,1.318,6.4,6.4,0,0,0,4.562-2.318l4.86,1.57a10.457,10.457,0,0,1-3.981,3.617,12.289,12.289,0,0,1-5.626,1.206,12.9,12.9,0,0,1-5.748-1.225,9.138,9.138,0,0,1-3.869-3.467,9.889,9.889,0,0,1-1.374-5.271,10.489,10.489,0,0,1,1.43-5.421,10.256,10.256,0,0,1,3.869-3.8,10.61,10.61,0,0,1,5.3-1.374,10.021,10.021,0,0,1,5.4,1.429,9.36,9.36,0,0,1,3.542,4.056A14.494,14.494,0,0,1,2170.314,51.516Zm-10.523-7.42a3.749,3.749,0,0,0-2.7.971,4.843,4.843,0,0,0-1.28,2.972H2164a4.722,4.722,0,0,0-1.43-2.85A3.922,3.922,0,0,0,2159.791,44.1Z" transform="translate(-1999.128 -31.348)" fill="#fff"/>
    </g>
  </g>
</svg>
