<svg xmlns="http://www.w3.org/2000/svg" width="722.499" height="215.5" viewBox="0 0 722.499 215.5">
  <g id="组_57" data-name="组 57" transform="translate(-2102.625 -12535.633)">
    <g id="组_55" data-name="组 55">
      <g id="组_54" data-name="组 54">
        <path id="路径_73" data-name="路径 73" d="M2306.372,12713.409h48.244l-1.725,10.191h-48.327l-3.041,17.342h48.245l-1.726,10.19h-70.27l7.971-45.2h21.944Z" fill="#fff"/>
        <path id="路径_74" data-name="路径 74" d="M2379.273,12705.931h21.944l-28.025,45.2h-21.944Zm43.478,16.52,7.643,28.683H2408.45l-7.644-28.683Z" fill="#fff"/>
        <path id="路径_75" data-name="路径 75" d="M2502.391,12721.3l-13.233,29.834h-21.944l8.712-19.643h-45.532l1.807-10.191Zm.986-5.177H2433.1l1.809-10.191H2505.1Z" fill="#fff"/>
        <path id="路径_76" data-name="路径 76" d="M2577.756,12714.314l-21.451,5.917-5.425,30.9h-21.944l4.357-24.573-29.341,8.055,2.137-12,73.8-20.383Z" fill="#fff"/>
        <path id="路径_77" data-name="路径 77" d="M2653.485,12705.931l-20.136,45.2h-21.944l15.533-35.011h-45.531l1.807-10.191Z" fill="#fff"/>
      </g>
      <circle id="椭圆_28" data-name="椭圆 28" cx="9.045" cy="9.045" r="9.045" transform="translate(2331.309 12685.026)" fill="#fff"/>
      <circle id="椭圆_29" data-name="椭圆 29" cx="9.045" cy="9.045" r="9.045" transform="translate(2352.461 12685.026)" fill="#fff"/>
      <circle id="椭圆_30" data-name="椭圆 30" cx="9.045" cy="9.045" r="9.045" transform="translate(2399.927 12685.026)" fill="#fff"/>
      <circle id="椭圆_31" data-name="椭圆 31" cx="9.045" cy="9.045" r="9.045" transform="translate(2421.079 12685.026)" fill="#fff"/>
      <circle id="椭圆_32" data-name="椭圆 32" cx="9.045" cy="9.045" r="9.045" transform="translate(2623.126 12685.026)" fill="#fff"/>
      <circle id="椭圆_33" data-name="椭圆 33" cx="9.045" cy="9.045" r="9.045" transform="translate(2644.278 12685.026)" fill="#fff"/>
    </g>
    <g id="组_56" data-name="组 56">
      <path id="路径_78" data-name="路径 78" d="M2147.828,12557.958l20.038,59.4,20.039-59.4h-14.989v-20.2h52.461v20.2h-14.359l-34.237,99.322h-24.534l-35.421-99.322h-14.2v-20.2h60.588v20.2Z" fill="#fff"/>
      <path id="路径_79" data-name="路径 79" d="M2272.174,12637.559v19.091h-51.2v-19.091H2233.6v-44.415h-12.623v-19.405h38.893v63.82Zm-10.65-87.41a13.907,13.907,0,0,1-4.3,10.454,14.233,14.233,0,0,1-10.217,4.141,14.5,14.5,0,1,1,14.516-14.595Z" fill="#fff"/>
      <path id="路径_80" data-name="路径 80" d="M2312.475,12557.958l20.038,59.4,20.038-59.4h-14.989v-20.2h52.461v20.2h-14.358l-34.237,99.322h-24.535l-35.421-99.322h-14.2v-20.2h60.587v20.2Z" fill="#fff"/>
      <path id="路径_81" data-name="路径 81" d="M2680.439,12557.958l20.038,59.4,20.039-59.4h-14.989v-20.2h52.461v20.2h-14.359l-34.237,99.322h-24.534l-35.421-99.322h-14.2v-20.2h60.588v20.2Z" fill="#fff"/>
      <path id="路径_82" data-name="路径 82" d="M2453.675,12606.871v30.688h13.413v19.091h-39.759v-6.47q-11.286,7.734-22.562,7.731-13.653,0-21.855-7.022t-8.2-18.933q0-12.62,9.191-20.235t24.413-7.61a35.469,35.469,0,0,1,9.432,1.144,52.962,52.962,0,0,1,9.585,3.9v-6.628a13.341,13.341,0,0,0-3.947-10.1q-3.947-3.787-11.835-3.785a20.93,20.93,0,0,0-15.223,6.624l-21.3-3.865q9.7-19.564,40.074-19.564,20.828,0,29.706,8.561T2453.675,12606.871Zm-42.993,34.553q7.1,0,16.647-8.519v-7.416q-8.522-5.521-15.625-5.523-5.676,0-8.677,2.684t-3,7.651Q2400.032,12641.423,2410.682,12641.424Z" fill="#fff"/>
      <path id="路径_83" data-name="路径 83" d="M2524.29,12557.958v78.5h35.1v-36.684h23.274v56.878H2476.325v-20.194h16.96v-78.5h-16.96v-20.2h65.4v20.2Z" fill="#fff"/>
      <path id="路径_84" data-name="路径 84" d="M2639.411,12637.559v19.091h-51.2v-19.091h12.622v-44.415h-12.622v-19.405h38.892v63.82Zm-10.647-87.41a13.909,13.909,0,0,1-4.3,10.454,14.226,14.226,0,0,1-10.215,4.141,14.5,14.5,0,1,1,14.516-14.595Z" fill="#fff"/>
      <path id="路径_85" data-name="路径 85" d="M2825.124,12620.754h-61.847q.945,9.549,6.586,15.108t14.554,5.562q9.864,0,19.251-9.783l20.51,6.627a44.116,44.116,0,0,1-16.8,15.267q-10.023,5.089-23.747,5.089a54.406,54.406,0,0,1-24.259-5.168,38.579,38.579,0,0,1-16.329-14.635q-5.8-9.464-5.8-22.247a44.265,44.265,0,0,1,6.035-22.877,43.3,43.3,0,0,1,16.329-16.056,44.833,44.833,0,0,1,22.366-5.8q13.094,0,22.8,6.035a39.5,39.5,0,0,1,14.948,17.12Q2824.967,12606.08,2825.124,12620.754Zm-44.415-31.318q-7.1,0-11.4,4.1t-5.4,12.542h34.553a19.937,19.937,0,0,0-6.035-12.028A16.559,16.559,0,0,0,2780.709,12589.436Z" fill="#fff"/>
    </g>
  </g>
</svg>
