<svg xmlns="http://www.w3.org/2000/svg" width="341.377" height="58.113" viewBox="0 0 341.377 58.113">
  <g id="组_58" data-name="组 58" transform="translate(-1957.209 -13347.195)">
    <path id="路径_86" data-name="路径 86" d="M1978.567,13357.745l9.468,28.068,9.468-28.068h-7.082v-9.542h24.787v9.542h-6.784l-16.177,46.929h-11.592l-16.736-46.929h-6.71v-9.542h28.627v9.542Z" fill="gray"/>
    <path id="路径_87" data-name="路径 87" d="M2037.32,13395.356v9.02h-24.192v-9.02h5.964v-20.986h-5.964v-9.169h18.377v30.155Zm-5.032-41.3a6.57,6.57,0,0,1-2.032,4.939,6.724,6.724,0,0,1-4.827,1.957,6.853,6.853,0,1,1,6.859-6.9Z" fill="gray"/>
    <path id="路径_88" data-name="路径 88" d="M2056.362,13357.745l9.468,28.068,9.467-28.068h-7.082v-9.542H2093v9.542h-6.784l-16.177,46.929h-11.593l-16.736-46.929H2035v-9.542h28.628v9.542Z" fill="gray"/>
    <path id="路径_89" data-name="路径 89" d="M2230.223,13357.745l9.468,28.068,9.468-28.068h-7.083v-9.542h24.788v9.542h-6.784l-16.177,46.929h-11.592l-16.737-46.929h-6.709v-9.542h28.627v9.542Z" fill="gray"/>
    <path id="路径_90" data-name="路径 90" d="M2123.078,13380.856v14.5h6.337v9.02H2110.63v-3.057a18.753,18.753,0,0,1-10.661,3.652q-6.452,0-10.326-3.317a11.164,11.164,0,0,1-3.877-8.945,11.8,11.8,0,0,1,4.343-9.562q4.341-3.595,11.535-3.6a16.782,16.782,0,0,1,4.457.541,25.221,25.221,0,0,1,4.529,1.844v-3.131a6.3,6.3,0,0,0-1.865-4.77q-1.864-1.792-5.592-1.789a9.886,9.886,0,0,0-7.193,3.13l-10.065-1.827q4.585-9.243,18.935-9.244,9.841,0,14.036,4.045T2123.078,13380.856Zm-20.314,16.325q3.353,0,7.866-4.024v-3.5a13.872,13.872,0,0,0-7.383-2.61,5.962,5.962,0,0,0-4.1,1.268,4.6,4.6,0,0,0-1.415,3.615Q2097.732,13397.182,2102.764,13397.182Z" fill="gray"/>
    <path id="路径_91" data-name="路径 91" d="M2156.443,13357.745v37.089h16.587V13377.5h11v26.875H2133.78v-9.542h8.013v-37.089h-8.013v-9.542h30.9v9.542Z" fill="gray"/>
    <path id="路径_92" data-name="路径 92" d="M2210.837,13395.356v9.02h-24.19v-9.02h5.964v-20.986h-5.964v-9.169h18.376v30.155Zm-5.031-41.3a6.573,6.573,0,0,1-2.031,4.939,6.727,6.727,0,0,1-4.827,1.957,6.854,6.854,0,1,1,6.858-6.9Z" fill="gray"/>
    <path id="路径_93" data-name="路径 93" d="M2298.586,13387.416h-29.223a11.192,11.192,0,0,0,3.112,7.138,9.377,9.377,0,0,0,6.877,2.628q4.66,0,9.1-4.622l9.691,3.132a20.855,20.855,0,0,1-7.939,7.213,24.5,24.5,0,0,1-11.221,2.4,25.719,25.719,0,0,1-11.462-2.44,18.233,18.233,0,0,1-7.715-6.915,19.726,19.726,0,0,1-2.74-10.512,20.915,20.915,0,0,1,2.852-10.81,20.455,20.455,0,0,1,7.715-7.586,21.181,21.181,0,0,1,10.568-2.74,19.976,19.976,0,0,1,10.772,2.853,18.659,18.659,0,0,1,7.063,8.089A28.909,28.909,0,0,1,2298.586,13387.416Zm-20.986-14.8a7.478,7.478,0,0,0-5.386,1.938,9.659,9.659,0,0,0-2.553,5.927h16.326a9.428,9.428,0,0,0-2.851-5.684A7.825,7.825,0,0,0,2277.6,13372.618Z" fill="gray"/>
  </g>
</svg>
