<svg id="组_102" data-name="组 102" xmlns="http://www.w3.org/2000/svg" width="47.651" height="47.651" viewBox="0 0 47.651 47.651">
  <circle id="椭圆_20" data-name="椭圆 20" cx="23.825" cy="23.825" r="23.825" transform="translate(0)"/>
  <g id="组_43" data-name="组 43" transform="translate(7.264 9.99)">
    <g id="组_42" data-name="组 42" transform="translate(11.105)">
      <path id="路径_40" data-name="路径 40" d="M2091.461,10575.055l-.444.467" transform="translate(-2076.019 -10568.931)" fill="none" stroke="#fff" stroke-linecap="round" stroke-linejoin="round" stroke-width="2"/>
      <path id="路径_41" data-name="路径 41" d="M2072.018,10574.287l-4.945,5.19a.572.572,0,0,1-.818.01l-1.394-1.388a.574.574,0,0,1,.009-.82l7.282-6.937" transform="translate(-2058.784 -10565.845)" fill="none" stroke="#fff" stroke-linecap="round" stroke-linejoin="round" stroke-width="2"/>
      <path id="路径_42" data-name="路径 42" d="M2052.007,10601.986a3,3,0,0,1-1.466.379,2.954,2.954,0,1,1,2.926-2.945,3.035,3.035,0,0,1-.329,1.387" transform="translate(-2047.58 -10582.943)" fill="none" stroke="#fff" stroke-linecap="round" stroke-linejoin="round" stroke-width="2"/>
      <path id="路径_43" data-name="路径 43" d="M2093.231,10561.658l-.509.5a.571.571,0,0,1-.808-.006l-1.668-1.692a.572.572,0,0,1,0-.809l2.2-2.168a.572.572,0,0,1,.807,0l1.683,1.686a.571.571,0,0,1,0,.812l-.45.442" transform="translate(-2075.405 -10557.318)" fill="none" stroke="#fff" stroke-linecap="round" stroke-linejoin="round" stroke-width="2"/>
    </g>
    <path id="路径_44" data-name="路径 44" d="M2025.193,10591.437c-.721,1.806-1.451,2.656-4.062,2.48-4.6-.31-9.222,5.611-1.832,12.9" transform="translate(-2015.417 -10579.655)" fill="none" stroke="#fff" stroke-linecap="round" stroke-linejoin="round" stroke-width="2"/>
    <path id="路径_45" data-name="路径 45" d="M2045.981,10584.054a4.78,4.78,0,0,0-.445.865" transform="translate(-2035.136 -10574.822)" fill="none" stroke="#fff" stroke-linecap="round" stroke-linejoin="round" stroke-width="2"/>
    <path id="路径_46" data-name="路径 46" d="M2056.776,10578.719a5.376,5.376,0,0,0-5-.146" transform="translate(-2039.222 -10570.876)" fill="none" stroke="#fff" stroke-linecap="round" stroke-linejoin="round" stroke-width="2"/>
    <path id="路径_47" data-name="路径 47" d="M2046.262,10600.742a4.8,4.8,0,0,1-2.969,5.588c-2.87,1.05-4.263,1.366-4.043,4.641.309,4.6-5.612,9.223-12.9,1.832" transform="translate(-2022.575 -10585.748)" fill="none" stroke="#fff" stroke-linecap="round" stroke-linejoin="round" stroke-width="2"/>
    <path id="路径_48" data-name="路径 48" d="M2080.9,10594.124a4.08,4.08,0,0,1,.373.5" transform="translate(-2058.289 -10581.415)" fill="none" stroke="#fff" stroke-linecap="round" stroke-linejoin="round" stroke-width="2"/>
    <line id="直线_23" data-name="直线 23" x2="0.516" y2="0.516" transform="translate(10.928 22.592)" fill="none" stroke="#fff" stroke-linecap="round" stroke-linejoin="round" stroke-width="2"/>
    <line id="直线_24" data-name="直线 24" x2="1.84" y2="1.84" transform="translate(7.935 19.599)" fill="none" stroke="#fff" stroke-linecap="round" stroke-linejoin="round" stroke-width="2"/>
  </g>
</svg>
