<svg id="组_10" data-name="组 10" xmlns="http://www.w3.org/2000/svg" width="47.651" height="47.651" viewBox="0 0 47.651 47.651">
  <g id="组_9" data-name="组 9" transform="translate(11.96 7.759)">
    <path id="路径_14" data-name="路径 14" d="M2052.884,10043.647v-12.125a4.937,4.937,0,0,0-4.936-4.937h-12.9a4.937,4.937,0,0,0-4.936,4.937v23.657a4.936,4.936,0,0,0,4.936,4.936h12.9a4.936,4.936,0,0,0,4.936-4.936v-1.848m0-2.155v-1.616m-15.745,4.973a5,5,0,1,1,1.559,1.688m-4.069-16.656a7.388,7.388,0,1,1,1.01,1.789m9.117-2.058a4.049,4.049,0,1,1,.769-1.9" transform="translate(-2030.115 -10026.586)" fill="none" stroke="#fff" stroke-linecap="round" stroke-miterlimit="10" stroke-width="3.142"/>
  </g>
  <g id="组_104" data-name="组 104">
    <circle id="椭圆_22" data-name="椭圆 22" cx="23.825" cy="23.825" r="23.825"/>
    <g id="组_47" data-name="组 47" transform="translate(7.31 11.13)">
      <path id="路径_64" data-name="路径 64" d="M2059.655,11103.3l-2.842,19.637-7.319-3.047-5.512,5.219-.452-6.921,1.665-2.079" transform="translate(-2033.862 -11097.34)" fill="none" stroke="#fff" stroke-linecap="round" stroke-linejoin="round" stroke-width="2"/>
      <path id="路径_65" data-name="路径 65" d="M2031.289,11099.282l5.475-6.833-14.277,12.018-6.958-2.86,26.656-15.573-.241,1.67" transform="translate(-2015.53 -11086.033)" fill="none" stroke="#fff" stroke-linecap="round" stroke-linejoin="round" stroke-width="2"/>
      <line id="直线_25" data-name="直线 25" y1="2.153" x2="1.725" transform="translate(12.596 15.044)" fill="none" stroke="#fff" stroke-linecap="round" stroke-linejoin="round" stroke-width="2"/>
    </g>
  </g>
</svg>
