<svg id="组_103" data-name="组 103" xmlns="http://www.w3.org/2000/svg" width="47.651" height="47.651" viewBox="0 0 47.651 47.651">
  <circle id="椭圆_21" data-name="椭圆 21" cx="23.825" cy="23.825" r="23.825"/>
  <g id="组_45" data-name="组 45" transform="translate(9.54 6.393)">
    <path id="路径_49" data-name="路径 49" d="M2028.346,10842.631a3.885,3.885,0,0,0,1.845,5.587,6.461,6.461,0,0,0,1.787,3.445s.842,4.239-1.505,5.231c-3.3,1.4-7.608.953-8.446,8.129" transform="translate(-2022.027 -10831.43)" fill="none" stroke="#fff" stroke-linecap="round" stroke-linejoin="round" stroke-width="2"/>
    <path id="路径_50" data-name="路径 50" d="M2045.868,10842.375a8.087,8.087,0,0,1,5.632.357s-.1,3.834-3.022,3.77A2.783,2.783,0,0,1,2045.868,10842.375Z" transform="translate(-2037.422 -10831.047)" fill="none" stroke="#fff" stroke-linecap="round" stroke-linejoin="round" stroke-width="2"/>
    <path id="路径_51" data-name="路径 51" d="M2048.3,10832.31c-1.819.18-3.964.284-6.262.284-6.569,0-11.894-.852-11.894-1.9,0-.457,1.011-.876,2.694-1.2" transform="translate(-2027.34 -10822.825)" fill="none" stroke="#fff" stroke-linecap="round" stroke-linejoin="round" stroke-width="2"/>
    <path id="路径_52" data-name="路径 52" d="M2087.8,10828.91c2.384.348,3.879.848,3.879,1.4,0,.522-1.32,1-3.455,1.34" transform="translate(-2065.088 -10822.447)" fill="none" stroke="#fff" stroke-linecap="round" stroke-linejoin="round" stroke-width="2"/>
    <path id="路径_53" data-name="路径 53" d="M2043.875,10812.745c.379-1.187.982-2.14,1.943-2.273a24.509,24.509,0,0,1,4.583-.261" transform="translate(-2036.331 -10810.191)" fill="none" stroke="#fff" stroke-linecap="round" stroke-linejoin="round" stroke-width="2"/>
    <path id="路径_54" data-name="路径 54" d="M2042.418,10823.674a6.208,6.208,0,0,1,.1-.727" transform="translate(-2035.377 -10818.543)" fill="none" stroke="#fff" stroke-linecap="round" stroke-linejoin="round" stroke-width="2"/>
    <path id="路径_55" data-name="路径 55" d="M2104.344,10904.6c.057.315.105.646.146,1" transform="translate(-2075.92 -10872.002)" fill="none" stroke="#fff" stroke-linecap="round" stroke-linejoin="round" stroke-width="2"/>
    <path id="路径_56" data-name="路径 56" d="M2101.5,10896.014a8.023,8.023,0,0,1,.544,1.246" transform="translate(-2074.058 -10866.38)" fill="none" stroke="#fff" stroke-linecap="round" stroke-linejoin="round" stroke-width="2"/>
    <path id="路径_57" data-name="路径 57" d="M2079.3,10842.631a3.885,3.885,0,0,1-1.845,5.587,6.457,6.457,0,0,1-1.787,3.445s-.842,4.239,1.506,5.231c2.052.867,4.489,1.025,6.242,2.737" transform="translate(-2057.051 -10831.43)" fill="none" stroke="#fff" stroke-linecap="round" stroke-linejoin="round" stroke-width="2"/>
    <path id="路径_58" data-name="路径 58" d="M2071.478,10845.1a2.971,2.971,0,0,0,.008-2.723,8.088,8.088,0,0,0-5.633.357s.1,3.834,3.022,3.77a3.44,3.44,0,0,0,1.567-.374" transform="translate(-2050.721 -10831.047)" fill="none" stroke="#fff" stroke-linecap="round" stroke-linejoin="round" stroke-width="2"/>
    <path id="路径_59" data-name="路径 59" d="M2069.609,10818.061s.2-7.2-2.571-7.589a24.5,24.5,0,0,0-4.583-.261" transform="translate(-2048.496 -10810.191)" fill="none" stroke="#fff" stroke-linecap="round" stroke-linejoin="round" stroke-width="2"/>
    <path id="路径_60" data-name="路径 60" d="M2050.32,10879.684s-.133,4.134,4.72,4.59" transform="translate(-2040.551 -10855.688)" fill="none" stroke="#fff" stroke-linecap="round" stroke-linejoin="round" stroke-width="2"/>
    <path id="路径_61" data-name="路径 61" d="M2071.038,10887.406a3.137,3.137,0,0,1-1.729,1.389" transform="translate(-2052.982 -10860.745)" fill="none" stroke="#fff" stroke-linecap="round" stroke-linejoin="round" stroke-width="2"/>
    <path id="路径_62" data-name="路径 62" d="M2050.15,10868.161s1.332,1.581,4.686,1.419" transform="translate(-2040.439 -10848.145)" fill="none" stroke="#fff" stroke-linecap="round" stroke-linejoin="round" stroke-width="2"/>
    <path id="路径_63" data-name="路径 63" d="M2062.595,10845.615s.323-.39,1.2,0" transform="translate(-2048.587 -10833.271)" fill="none" stroke="#fff" stroke-linecap="round" stroke-linejoin="round" stroke-width="2"/>
  </g>
</svg>
