<svg xmlns="http://www.w3.org/2000/svg" width="99.965" height="100.599" viewBox="0 0 99.965 100.599">
  <g id="组_31" data-name="组 31" transform="translate(2.113 2.225)">
    <g id="组_30" data-name="组 30" transform="translate(34.556)">
      <path id="路径_16" data-name="路径 16" d="M2239.817,11705.994l-1.381,1.448" transform="translate(-2191.768 -11686.937)" fill="none" stroke="#fff" stroke-linecap="round" stroke-linejoin="round" stroke-width="4"/>
      <path id="路径_17" data-name="路径 17" d="M2223.274,11711.473l-15.386,16.149a1.781,1.781,0,0,1-2.546.029l-4.338-4.317a1.78,1.78,0,0,1,.027-2.549l22.658-21.589" transform="translate(-2182.095 -11685.203)" fill="none" stroke="#fff" stroke-linecap="round" stroke-linejoin="round" stroke-width="4"/>
      <path id="路径_18" data-name="路径 18" d="M2189.583,11754.051a9.267,9.267,0,0,1-4.562,1.181,9.19,9.19,0,1,1,9.105-9.163,9.441,9.441,0,0,1-1.026,4.316" transform="translate(-2175.809 -11694.801)" fill="none" stroke="#fff" stroke-linecap="round" stroke-linejoin="round" stroke-width="4"/>
      <path id="路径_19" data-name="路径 19" d="M2246.889,11693.922l-1.585,1.561a1.778,1.778,0,0,1-2.514-.022l-5.191-5.267a1.78,1.78,0,0,1,.015-2.517l6.834-6.742a1.779,1.779,0,0,1,2.511.007l5.236,5.246a1.775,1.775,0,0,1-.008,2.523l-1.4,1.377" transform="translate(-2191.423 -11680.419)" fill="none" stroke="#fff" stroke-linecap="round" stroke-linejoin="round" stroke-width="4"/>
    </g>
    <path id="路径_20" data-name="路径 20" d="M2159.852,11729.611c-2.242,5.62-4.515,8.265-12.638,7.718-14.313-.963-28.7,17.461-5.7,40.14" transform="translate(-2129.435 -11692.954)" fill="none" stroke="#fff" stroke-linecap="round" stroke-linejoin="round" stroke-width="4"/>
    <path id="路径_21" data-name="路径 21" d="M2174.245,11718.964a15.011,15.011,0,0,0-1.384,2.694" transform="translate(-2140.501 -11690.24)" fill="none" stroke="#fff" stroke-linecap="round" stroke-linejoin="round" stroke-width="4"/>
    <path id="路径_22" data-name="路径 22" d="M2197.414,11712.432a16.733,16.733,0,0,0-15.554-.455" transform="translate(-2142.794 -11688.028)" fill="none" stroke="#fff" stroke-linecap="round" stroke-linejoin="round" stroke-width="4"/>
    <path id="路径_23" data-name="路径 23" d="M2207.156,11743.028c1.279,6.69-1.37,14.51-9.24,17.388-8.932,3.266-13.265,4.25-12.579,14.438.962,14.313-17.461,28.7-40.138,5.7" transform="translate(-2133.452 -11696.372)" fill="none" stroke="#fff" stroke-linecap="round" stroke-linejoin="round" stroke-width="4"/>
    <path id="路径_24" data-name="路径 24" d="M2223.848,11733.487a13.228,13.228,0,0,1,1.162,1.541" transform="translate(-2153.494 -11693.942)" fill="none" stroke="#fff" stroke-linecap="round" stroke-linejoin="round" stroke-width="4"/>
    <line id="直线_21" data-name="直线 21" x2="1.606" y2="1.606" transform="translate(34.002 70.296)" fill="none" stroke="#fff" stroke-linecap="round" stroke-linejoin="round" stroke-width="4"/>
    <line id="直线_22" data-name="直线 22" x2="5.725" y2="5.725" transform="translate(24.691 60.984)" fill="none" stroke="#fff" stroke-linecap="round" stroke-linejoin="round" stroke-width="4"/>
  </g>
</svg>
